<svg xmlns="http://www.w3.org/2000/svg" xmlns:xlink="http://www.w3.org/1999/xlink" xmlns:lucid="lucid" width="741.18" height="504.67"><g transform="translate(-200 -1423.1666666666667)" lucid:page-tab-id="5Md7vc7BvX9T"><path d="M200 1486a6 6 0 0 1 6-6h729.18a6 6 0 0 1 6 6v402.02a6 6 0 0 1-6 6H206a6 6 0 0 1-6-6z" fill="#fafafa"/><use xlink:href="#a" transform="matrix(1,0,0,1,205,1485) translate(0 23.680555555555554)"/><use xlink:href="#b" transform="matrix(1,0,0,1,205,1485) translate(0 64.99109686609687)"/><use xlink:href="#c" transform="matrix(1,0,0,1,205,1485) translate(34.138888888888886 64.99109686609687)"/><use xlink:href="#b" transform="matrix(1,0,0,1,205,1485) translate(0 106.30163817663818)"/><use xlink:href="#d" transform="matrix(1,0,0,1,205,1485) translate(34.138888888888886 106.30163817663818)"/><use xlink:href="#b" transform="matrix(1,0,0,1,205,1485) translate(0 147.61217948717947)"/><use xlink:href="#e" transform="matrix(1,0,0,1,205,1485) translate(34.138888888888886 147.61217948717947)"/><use xlink:href="#f" transform="matrix(1,0,0,1,205,1485) translate(0 188.92272079772079)"/><use xlink:href="#g" transform="matrix(1,0,0,1,205,1485) translate(102.41666666666666 188.92272079772079)"/><use xlink:href="#h" transform="matrix(1,0,0,1,205,1485) translate(0 230.2332621082621)"/><use xlink:href="#i" transform="matrix(1,0,0,1,205,1485) translate(136.55555555555554 230.2332621082621)"/><use xlink:href="#j" transform="matrix(1,0,0,1,205,1485) translate(0 271.5438034188034)"/><use xlink:href="#k" transform="matrix(1,0,0,1,205,1485) translate(136.55555555555554 271.5438034188034)"/><use xlink:href="#l" transform="matrix(1,0,0,1,205,1485) translate(460.8750000000001 271.5438034188034)"/><use xlink:href="#m" transform="matrix(1,0,0,1,205,1485) translate(512.0833333333335 271.5438034188034)"/><use xlink:href="#f" transform="matrix(1,0,0,1,205,1485) translate(0 312.8543447293447)"/><use xlink:href="#n" transform="matrix(1,0,0,1,205,1485) translate(102.41666666666666 312.8543447293447)"/><use xlink:href="#o" transform="matrix(1,0,0,1,205,1485) translate(187.76388888888886 312.8543447293447)"/><use xlink:href="#f" transform="matrix(1,0,0,1,205,1485) translate(0 354.164886039886)"/><use xlink:href="#p" transform="matrix(1,0,0,1,205,1485) translate(102.41666666666666 354.164886039886)"/><use xlink:href="#q" transform="matrix(1,0,0,1,205,1485) translate(204.83333333333331 354.164886039886)"/><use xlink:href="#r" transform="matrix(1,0,0,1,205,1485) translate(341.38888888888886 354.164886039886)"/><use xlink:href="#s" transform="matrix(1,0,0,1,205,1485) translate(375.5277777777777 354.164886039886)"/><use xlink:href="#b" transform="matrix(1,0,0,1,205,1485) translate(0 395.47542735042737)"/><use xlink:href="#t" transform="matrix(1,0,0,1,205,1485) translate(34.138888888888886 395.47542735042737)"/><path d="M540 1428.67c0-2.77 2.24-5 5-5h230c2.76 0 5 2.23 5 5v30c0 2.76-2.24 5-5 5H615.85l-69.25 20.54 32.86-20.53H545c-2.76 0-5-2.24-5-5z" stroke="#008a0e" fill="#fff"/><g><use xlink:href="#u" transform="matrix(1,0,0,1,545,1428.6666666666667) translate(12.030864197530889 18.069444444444443)"/><use xlink:href="#v" transform="matrix(1,0,0,1,545,1428.6666666666667) translate(39.59876543209879 18.069444444444443)"/><use xlink:href="#w" transform="matrix(1,0,0,1,545,1428.6666666666667) translate(59.3888888888889 18.069444444444443)"/><use xlink:href="#x" transform="matrix(1,0,0,1,545,1428.6666666666667) translate(105.14814814814815 18.069444444444443)"/><use xlink:href="#y" transform="matrix(1,0,0,1,545,1428.6666666666667) translate(121.52469135802468 18.069444444444443)"/><use xlink:href="#z" transform="matrix(1,0,0,1,545,1428.6666666666667) translate(167.88888888888886 18.069444444444443)"/></g><path d="M680 1481.33c0-2.76 2.24-5 5-5h230c2.76 0 5 2.24 5 5v37.34c0 2.76-2.24 5-5 5H755.85l-69.25 20.54 32.86-20.53H685c-2.76 0-5-2.24-5-5z" stroke="#008a0e" fill="#fff"/><g><use xlink:href="#A" transform="matrix(1,0,0,1,685,1481.3333333333333) translate(5.333333333333371 14.819444444444443)"/><use xlink:href="#B" transform="matrix(1,0,0,1,685,1481.3333333333333) translate(52.820987654321016 14.819444444444443)"/><use xlink:href="#w" transform="matrix(1,0,0,1,685,1481.3333333333333) translate(85.61728395061729 14.819444444444443)"/><use xlink:href="#C" transform="matrix(1,0,0,1,685,1481.3333333333333) translate(131.37654320987653 14.819444444444443)"/><use xlink:href="#D" transform="matrix(1,0,0,1,685,1481.3333333333333) translate(161.62345679012344 14.819444444444443)"/><use xlink:href="#E" transform="matrix(1,0,0,1,685,1481.3333333333333) translate(216.02469135802465 14.819444444444443)"/><use xlink:href="#F" transform="matrix(1,0,0,1,685,1481.3333333333333) translate(56.88271604938273 33.48611111111111)"/><use xlink:href="#G" transform="matrix(1,0,0,1,685,1481.3333333333333) translate(111.24074074074073 33.48611111111111)"/></g><path d="M652.35 1585c0-2.76 2.23-5 5-5h230c2.76 0 5 2.24 5 5v37.33c0 2.77-2.24 5-5 5h-230c-2.77 0-5-2.23-5-5v-8.2l-51.14-28.57 51.15 7.64z" stroke="#008a0e" fill="#fff"/><g><use xlink:href="#H" transform="matrix(1,0,0,1,657.3456790123457,1585) translate(1.8981481481481666 14.819444444444443)"/><use xlink:href="#I" transform="matrix(1,0,0,1,657.3456790123457,1585) translate(34.69444444444446 14.819444444444443)"/><use xlink:href="#J" transform="matrix(1,0,0,1,657.3456790123457,1585) translate(56.299382716049394 14.819444444444443)"/><use xlink:href="#K" transform="matrix(1,0,0,1,657.3456790123457,1585) translate(133.9907407407407 14.819444444444443)"/><use xlink:href="#L" transform="matrix(1,0,0,1,657.3456790123457,1585) translate(189.21296296296293 14.819444444444443)"/><use xlink:href="#M" transform="matrix(1,0,0,1,657.3456790123457,1585) translate(206.49691358024688 14.819444444444443)"/><use xlink:href="#N" transform="matrix(1,0,0,1,657.3456790123457,1585) translate(100.35185185185185 33.48611111111111)"/></g><path d="M500 1885c0-2.76 2.24-5 5-5h57.64l-8.9-34.9 31.76 34.9H735c2.76 0 5 2.24 5 5v37.33c0 2.77-2.24 5-5 5H505c-2.76 0-5-2.23-5-5z" stroke="#008a0e" fill="#fff"/><g><use xlink:href="#O" transform="matrix(1,0,0,1,505,1885) translate(18.339506172839535 14.819444444444443)"/><use xlink:href="#v" transform="matrix(1,0,0,1,505,1885) translate(47.72222222222224 14.819444444444443)"/><use xlink:href="#P" transform="matrix(1,0,0,1,505,1885) translate(67.51234567901236 14.819444444444443)"/><use xlink:href="#Q" transform="matrix(1,0,0,1,505,1885) translate(133.06172839506172 14.819444444444443)"/><use xlink:href="#R" transform="matrix(1,0,0,1,505,1885) translate(167.62962962962962 14.819444444444443)"/><use xlink:href="#M" transform="matrix(1,0,0,1,505,1885) translate(190.05555555555554 14.819444444444443)"/><use xlink:href="#S" transform="matrix(1,0,0,1,505,1885) translate(66.56172839506173 33.48611111111111)"/><use xlink:href="#T" transform="matrix(1,0,0,1,505,1885) translate(121.78395061728395 33.48611111111111)"/><use xlink:href="#U" transform="matrix(1,0,0,1,505,1885) translate(135.179012345679 33.48611111111111)"/></g><defs><path fill="#3b3b3b" d="M865-914c-3-187-2-380-2-570h180v1261c0 76 1 155 6 223H877c-8-49-9-116-10-174h-5C801-44 708 26 530 26c-135 0-234-46-297-139s-95-232-95-419c0-377 131-566 392-566 176 0 271 63 335 184zm-286-51c-222 0-255 197-255 427 0 229 31 425 253 425 237 0 286-195 286-441 0-238-52-411-284-411" id="V"/><path fill="#3b3b3b" d="M932 0L611-444 288 0H94l415-556-397-526h199l300 421 298-421h201L713-558 1133 0H932" id="W"/><path fill="#3b3b3b" d="M496 0v-299h235V0H496" id="X"/><path fill="#795e26" d="M839-1335c-182-6-269 67-259 253h491v142H580V0H400v-940H138v-142h262c-15-293 132-408 418-402 94 2 200 7 281 21v145c-75-10-177-14-260-17" id="Y"/><path fill="#795e26" d="M839-1102c70 0 148 7 206 17v167c-112-18-268-36-363 15-129 69-208 203-208 395V0H294c-10-367 32-789-52-1082h171c21 75 41 161 48 250h5c67-152 152-270 373-270" id="Z"/><path fill="#795e26" d="M615-1102c343 0 484 203 482 560-1 347-147 562-488 562-336 0-475-219-479-562-4-349 156-560 485-560zm-8 989c240 0 301-180 301-429 0-245-55-427-290-427-236 0-299 181-299 427 0 243 61 429 288 429" id="aa"/><path fill="#795e26" d="M904-1102c199 0 220 177 220 381V0H956v-686c-3-114 0-215-60-264-70-33-125-4-158 71-26 56-39 140-39 252V0H531v-686c-3-114-1-215-61-264-78-41-136 24-157 84-24 69-39 159-39 259V0H105c-3-360 6-732-6-1082h149c6 50 3 123 8 175 36-100 83-195 216-195 135 0 166 79 196 196 42-105 93-196 236-196" id="ab"/><path fill="#795e26" d="M-5 220v-96h1238v96H-5" id="ac"/><path fill="#795e26" d="M682 16c-209 0-323-80-324-285v-671H190v-142h170l58-282h120v282h432v142H538v652c2 114 60 155 182 155 106 0 209-16 297-34v137C921-4 806 16 682 16" id="ad"/><path fill="#795e26" d="M1000-272c3 95 12 159 101 161 21 0 41-3 59-7V-6c-44 10-86 16-139 16-141 2-191-84-197-217h-6C748-76 648 20 446 20c-207 0-318-120-318-322 0-266 194-348 454-354l236-4c12-191-40-305-222-305-140 0-220 47-232 172l-188-17c33-204 181-292 423-292 255 0 401 118 401 364v466zm-683-27c0 109 63 184 175 182 166-3 259-96 306-217 24-65 20-120 20-200-232 7-501-28-501 235" id="ae"/><path fill="#795e26" d="M365-904c58-129 161-200 334-200 130 0 228 46 293 138s98 233 98 420c0 189-34 331-102 425S824 20 698 20c-170 0-275-64-336-184 0 55-3 116-9 164H179c5-68 6-147 6-223v-1261h180c-2 193 4 394-4 580h4zm283 791c221 0 256-197 256-427 0-229-34-425-254-425-236 0-285 195-285 441 0 237 53 411 283 411" id="af"/><path fill="#795e26" d="M736-142h380V0H134v-142h422v-1200H267v-142h469v1342" id="ag"/><path fill="#795e26" d="M617-1102c355 0 481 238 477 599H322c5 222 84 388 301 388 144 0 244-59 284-166l158 45C1002-72 854 20 623 20c-342 0-490-220-490-568 0-346 151-554 484-554zm291 461c-18-192-90-328-289-328-194 0-287 128-295 328h584" id="ah"/><path fill="#795e26" d="M873-819c-18-114-119-146-250-146-163 0-245 50-245 151 0 151 170 148 294 185 182 54 388 94 388 320 0 240-189 325-439 329-245 4-410-69-454-268l159-31c24 133 136 168 295 165 144-2 270-31 270-171 0-164-195-160-331-202-167-52-350-87-350-299 0-218 173-315 413-313 220 2 373 77 412 260" id="ai"/><path fill="#3b3b3b" d="M891-1484c-201 251-362 514-362 954 0 441 161 704 362 955H701C500 176 342-90 342-532c0-440 159-704 359-952h190" id="aj"/><path fill="#c72e0f" d="M908-845H766l-40-639h224zm-449 0H318l-41-639h224" id="ak"/><path fill="#c72e0f" d="M698-1104c312 3 392 244 392 558 0 315-82 566-392 566-169 0-277-65-331-184h-5c8 188 2 394 4 589H185V-858c0-76-1-156-6-224h175c6 52 9 120 10 178h4c58-122 150-202 330-200zm-49 991c225 0 255-203 255-433 0-225-32-419-253-419-236 0-285 192-285 441 0 237 53 411 283 411" id="al"/><path fill="#c72e0f" d="M839-1102c70 0 148 7 206 17v167c-112-18-268-36-363 15-129 69-208 203-208 395V0H294c-10-367 32-789-52-1082h171c21 75 41 161 48 250h5c67-152 152-270 373-270" id="am"/><path fill="#c72e0f" d="M615-1102c343 0 484 203 482 560-1 347-147 562-488 562-336 0-475-219-479-562-4-349 156-560 485-560zm-8 989c240 0 301-180 301-429 0-245-55-427-290-427-236 0-299 181-299 427 0 243 61 429 288 429" id="an"/><path fill="#c72e0f" d="M865-914c-3-187-2-380-2-570h180v1261c0 76 1 155 6 223H877c-8-49-9-116-10-174h-5C801-44 708 26 530 26c-135 0-234-46-297-139s-95-232-95-419c0-377 131-566 392-566 176 0 271 63 335 184zm-286-51c-222 0-255 197-255 427 0 229 31 425 253 425 237 0 286-195 286-441 0-238-52-411-284-411" id="ao"/><path fill="#c72e0f" d="M496 0v-299h235V0H496" id="ap"/><path fill="#c72e0f" d="M671-1188l264-103 45 132-282 73 185 250-119 72-150-258-156 256-119-72 189-248-280-73 45-134 267 107-12-297h136" id="aq"/><path fill="#3b3b3b" d="M528-1484c201 248 357 511 357 952 0 442-156 709-357 957H336C537 174 700-89 700-530c0-440-163-703-364-954h192" id="ar"/><g id="a"><use transform="matrix(0.013888888888888888,0,0,0.013888888888888888,0,0)" xlink:href="#V"/><use transform="matrix(0.013888888888888888,0,0,0.013888888888888888,17.069444444444443,0)" xlink:href="#W"/><use transform="matrix(0.013888888888888888,0,0,0.013888888888888888,34.138888888888886,0)" xlink:href="#X"/><use transform="matrix(0.013888888888888888,0,0,0.013888888888888888,51.20833333333333,0)" xlink:href="#Y"/><use transform="matrix(0.013888888888888888,0,0,0.013888888888888888,68.27777777777777,0)" xlink:href="#Z"/><use transform="matrix(0.013888888888888888,0,0,0.013888888888888888,85.34722222222221,0)" xlink:href="#aa"/><use transform="matrix(0.013888888888888888,0,0,0.013888888888888888,102.41666666666666,0)" xlink:href="#ab"/><use transform="matrix(0.013888888888888888,0,0,0.013888888888888888,119.4861111111111,0)" xlink:href="#ac"/><use transform="matrix(0.013888888888888888,0,0,0.013888888888888888,136.55555555555554,0)" xlink:href="#ad"/><use transform="matrix(0.013888888888888888,0,0,0.013888888888888888,153.625,0)" xlink:href="#ae"/><use transform="matrix(0.013888888888888888,0,0,0.013888888888888888,170.69444444444446,0)" xlink:href="#af"/><use transform="matrix(0.013888888888888888,0,0,0.013888888888888888,187.7638888888889,0)" xlink:href="#ag"/><use transform="matrix(0.013888888888888888,0,0,0.013888888888888888,204.83333333333337,0)" xlink:href="#ah"/><use transform="matrix(0.013888888888888888,0,0,0.013888888888888888,221.90277777777783,0)" xlink:href="#ai"/><use transform="matrix(0.013888888888888888,0,0,0.013888888888888888,238.9722222222223,0)" xlink:href="#aj"/><use transform="matrix(0.013888888888888888,0,0,0.013888888888888888,256.04166666666674,0)" xlink:href="#ak"/><use transform="matrix(0.013888888888888888,0,0,0.013888888888888888,273.1111111111112,0)" xlink:href="#al"/><use transform="matrix(0.013888888888888888,0,0,0.013888888888888888,290.18055555555566,0)" xlink:href="#am"/><use transform="matrix(0.013888888888888888,0,0,0.013888888888888888,307.2500000000001,0)" xlink:href="#an"/><use transform="matrix(0.013888888888888888,0,0,0.013888888888888888,324.31944444444457,0)" xlink:href="#ao"/><use transform="matrix(0.013888888888888888,0,0,0.013888888888888888,341.388888888889,0)" xlink:href="#ap"/><use transform="matrix(0.013888888888888888,0,0,0.013888888888888888,358.4583333333335,0)" xlink:href="#aq"/><use transform="matrix(0.013888888888888888,0,0,0.013888888888888888,375.52777777777794,0)" xlink:href="#ap"/><use transform="matrix(0.013888888888888888,0,0,0.013888888888888888,392.5972222222224,0)" xlink:href="#aq"/><use transform="matrix(0.013888888888888888,0,0,0.013888888888888888,409.66666666666686,0)" xlink:href="#ak"/><use transform="matrix(0.013888888888888888,0,0,0.013888888888888888,426.7361111111113,0)" xlink:href="#ar"/></g><path fill="#795e26" d="M648-963c-190 6-283 138-283 336V0H185v-1484h181c-2 197 6 404-9 587h3c62-120 159-205 339-205 242 0 351 135 350 381V0H868v-695c1-168-57-273-220-268" id="as"/><path fill="#795e26" d="M715 0H502L69-1082h202c94 253 197 500 285 758 19 57 36 126 52 183 96-335 234-626 350-941h201" id="at"/><path fill="#795e26" d="M745-142h380V0H143v-142h422v-798H246v-142h499v940zM545-1292v-192h200v192H545" id="au"/><path fill="#795e26" d="M706-1102c241 0 344 136 343 381V0H868v-695c1-168-57-273-220-268-190 6-283 138-283 336V0H185c-3-360 6-732-6-1082h170c4 54 7 126 8 185h3c63-121 164-204 346-205" id="av"/><path fill="#795e26" d="M1048-32c-2 300-135 456-433 456-222-1-358-88-400-267l184-25c22 99 100 157 222 156 184-2 248-125 248-315 0-64 3-133-2-194C807-100 706-13 524-12c-306 0-381-228-381-537 0-318 85-550 400-550 164 0 271 83 325 202h3c1-60 3-134 12-185h171c-13 339-4 702-6 1050zM585-145c210-8 284-178 284-406 0-192-52-331-177-392-33-16-69-22-104-22-223 2-259 184-259 414 0 229 31 415 256 406" id="aw"/><path fill="#795e26" d="M631 20c-350 0-501-215-501-562 0-355 162-560 502-560 250 0 399 118 446 323l-192 14c-23-124-109-196-262-196-242 0-305 171-305 415 1 245 61 427 304 427 151 0 248-77 267-215l190 12C1039-107 883 20 631 20" id="ax"/><path fill="#795e26" d="M528 20c-247 0-343-132-343-381v-721h180v686c-4 177 45 284 224 277 194-8 279-136 279-336v-627h181c3 360-6 732 6 1082H885c-4-54-7-126-8-185h-3C809-64 714 20 528 20" id="ay"/><path fill="#c72e0f" d="M528 20c-247 0-343-132-343-381v-721h180v686c-4 177 45 284 224 277 194-8 279-136 279-336v-627h181c3 360-6 732 6 1082H885c-4-54-7-126-8-185h-3C809-64 714 20 528 20" id="az"/><path fill="#c72e0f" d="M873-819c-18-114-119-146-250-146-163 0-245 50-245 151 0 151 170 148 294 185 182 54 388 94 388 320 0 240-189 325-439 329-245 4-410-69-454-268l159-31c24 133 136 168 295 165 144-2 270-31 270-171 0-164-195-160-331-202-167-52-350-87-350-299 0-218 173-315 413-313 220 2 373 77 412 260" id="aA"/><path fill="#c72e0f" d="M617-1102c355 0 481 238 477 599H322c5 222 84 388 301 388 144 0 244-59 284-166l158 45C1002-72 854 20 623 20c-342 0-490-220-490-568 0-346 151-554 484-554zm291 461c-18-192-90-328-289-328-194 0-287 128-295 328h584" id="aB"/><path fill="#c72e0f" d="M-5 220v-96h1238v96H-5" id="aC"/><path fill="#c72e0f" d="M745-142h380V0H143v-142h422v-798H246v-142h499v940zM545-1292v-192h200v192H545" id="aD"/><g id="c"><use transform="matrix(0.013888888888888888,0,0,0.013888888888888888,0,0)" xlink:href="#X"/><use transform="matrix(0.013888888888888888,0,0,0.013888888888888888,17.069444444444443,0)" xlink:href="#as"/><use transform="matrix(0.013888888888888888,0,0,0.013888888888888888,34.138888888888886,0)" xlink:href="#ae"/><use transform="matrix(0.013888888888888888,0,0,0.013888888888888888,51.20833333333333,0)" xlink:href="#at"/><use transform="matrix(0.013888888888888888,0,0,0.013888888888888888,68.27777777777777,0)" xlink:href="#au"/><use transform="matrix(0.013888888888888888,0,0,0.013888888888888888,85.34722222222221,0)" xlink:href="#av"/><use transform="matrix(0.013888888888888888,0,0,0.013888888888888888,102.41666666666666,0)" xlink:href="#aw"/><use transform="matrix(0.013888888888888888,0,0,0.013888888888888888,119.4861111111111,0)" xlink:href="#ac"/><use transform="matrix(0.013888888888888888,0,0,0.013888888888888888,136.55555555555554,0)" xlink:href="#ax"/><use transform="matrix(0.013888888888888888,0,0,0.013888888888888888,153.625,0)" xlink:href="#aa"/><use transform="matrix(0.013888888888888888,0,0,0.013888888888888888,170.69444444444446,0)" xlink:href="#ag"/><use transform="matrix(0.013888888888888888,0,0,0.013888888888888888,187.7638888888889,0)" xlink:href="#ay"/><use transform="matrix(0.013888888888888888,0,0,0.013888888888888888,204.83333333333337,0)" xlink:href="#ab"/><use transform="matrix(0.013888888888888888,0,0,0.013888888888888888,221.90277777777783,0)" xlink:href="#av"/><use transform="matrix(0.013888888888888888,0,0,0.013888888888888888,238.9722222222223,0)" xlink:href="#ai"/><use transform="matrix(0.013888888888888888,0,0,0.013888888888888888,256.04166666666674,0)" xlink:href="#aj"/><use transform="matrix(0.013888888888888888,0,0,0.013888888888888888,273.1111111111112,0)" xlink:href="#ak"/><use transform="matrix(0.013888888888888888,0,0,0.013888888888888888,290.18055555555566,0)" xlink:href="#az"/><use transform="matrix(0.013888888888888888,0,0,0.013888888888888888,307.2500000000001,0)" xlink:href="#aA"/><use transform="matrix(0.013888888888888888,0,0,0.013888888888888888,324.31944444444457,0)" xlink:href="#aB"/><use transform="matrix(0.013888888888888888,0,0,0.013888888888888888,341.388888888889,0)" xlink:href="#am"/><use transform="matrix(0.013888888888888888,0,0,0.013888888888888888,358.4583333333335,0)" xlink:href="#aC"/><use transform="matrix(0.013888888888888888,0,0,0.013888888888888888,375.52777777777794,0)" xlink:href="#aD"/><use transform="matrix(0.013888888888888888,0,0,0.013888888888888888,392.5972222222224,0)" xlink:href="#ao"/><use transform="matrix(0.013888888888888888,0,0,0.013888888888888888,409.66666666666686,0)" xlink:href="#ak"/><use transform="matrix(0.013888888888888888,0,0,0.013888888888888888,426.7361111111113,0)" xlink:href="#ar"/></g><path fill="#795e26" d="M1018 0H814c-67-224-138-444-200-673C552-442 476-224 407 0H204L21-1082h178c43 310 105 601 126 933 54-225 128-425 193-638h193c63 212 134 415 185 638 22-336 90-622 136-933h176" id="aE"/><path fill="#795e26" d="M168 279c222 39 310-114 368-290L66-1082h192c120 299 249 590 362 896 115-301 235-597 351-896h190L705 0c-65 164-130 320-275 396-67 36-177 35-262 18V279" id="aF"/><path fill="#098658" d="M611-1370c266 0 451 106 451 368 0 147-77 243-154 327-132 144-316 255-451 395-42 44-75 87-96 134h723V0H144v-117c124-264 387-411 582-603 73-72 151-147 151-271 0-161-104-231-266-231-163 0-249 90-268 238l-184-17c35-233 185-369 452-369" id="aG"/><path fill="#098658" d="M1065-1013c47 164 49 500-1 665C999-130 875 20 611 20c-377 0-484-300-487-695-2-245 41-425 141-551 77-98 191-144 352-144 261 0 386 140 448 357zM741-155c199-92 203-504 159-785-26-168-96-284-283-284-281 0-308 256-311 549-2 181 18 324 80 428 46 77 115 118 227 120 47 0 90-10 128-28" id="aH"/><g id="d"><use transform="matrix(0.013888888888888888,0,0,0.013888888888888888,0,0)" xlink:href="#X"/><use transform="matrix(0.013888888888888888,0,0,0.013888888888888888,17.069444444444443,0)" xlink:href="#aE"/><use transform="matrix(0.013888888888888888,0,0,0.013888888888888888,34.138888888888886,0)" xlink:href="#au"/><use transform="matrix(0.013888888888888888,0,0,0.013888888888888888,51.20833333333333,0)" xlink:href="#ad"/><use transform="matrix(0.013888888888888888,0,0,0.013888888888888888,68.27777777777777,0)" xlink:href="#as"/><use transform="matrix(0.013888888888888888,0,0,0.013888888888888888,85.34722222222221,0)" xlink:href="#ac"/><use transform="matrix(0.013888888888888888,0,0,0.013888888888888888,102.41666666666666,0)" xlink:href="#ax"/><use transform="matrix(0.013888888888888888,0,0,0.013888888888888888,119.4861111111111,0)" xlink:href="#aa"/><use transform="matrix(0.013888888888888888,0,0,0.013888888888888888,136.55555555555554,0)" xlink:href="#av"/><use transform="matrix(0.013888888888888888,0,0,0.013888888888888888,153.625,0)" xlink:href="#ax"/><use transform="matrix(0.013888888888888888,0,0,0.013888888888888888,170.69444444444446,0)" xlink:href="#ay"/><use transform="matrix(0.013888888888888888,0,0,0.013888888888888888,187.7638888888889,0)" xlink:href="#Z"/><use transform="matrix(0.013888888888888888,0,0,0.013888888888888888,204.83333333333337,0)" xlink:href="#Z"/><use transform="matrix(0.013888888888888888,0,0,0.013888888888888888,221.90277777777783,0)" xlink:href="#ah"/><use transform="matrix(0.013888888888888888,0,0,0.013888888888888888,238.9722222222223,0)" xlink:href="#av"/><use transform="matrix(0.013888888888888888,0,0,0.013888888888888888,256.04166666666674,0)" xlink:href="#ax"/><use transform="matrix(0.013888888888888888,0,0,0.013888888888888888,273.1111111111112,0)" xlink:href="#aF"/><use transform="matrix(0.013888888888888888,0,0,0.013888888888888888,290.18055555555566,0)" xlink:href="#aj"/><use transform="matrix(0.013888888888888888,0,0,0.013888888888888888,307.2500000000001,0)" xlink:href="#aG"/><use transform="matrix(0.013888888888888888,0,0,0.013888888888888888,324.31944444444457,0)" xlink:href="#aH"/><use transform="matrix(0.013888888888888888,0,0,0.013888888888888888,341.388888888889,0)" xlink:href="#ar"/></g><path fill="#795e26" d="M530 26c-303-6-392-228-392-558 0-187 33-329 98-424s162-142 293-142c178 0 273 69 334 184 1-56 3-122 12-169h175c-6 88-6 180-6 282V425H863c1-202-4-411 4-607h-2C805-59 713 29 530 26zm47-139c234 0 286-193 286-441 0-238-55-411-284-411-223 0-255 198-255 427 0 227 33 425 253 425" id="aI"/><g id="e"><use transform="matrix(0.013888888888888888,0,0,0.013888888888888888,0,0)" xlink:href="#X"/><use transform="matrix(0.013888888888888888,0,0,0.013888888888888888,17.069444444444443,0)" xlink:href="#aE"/><use transform="matrix(0.013888888888888888,0,0,0.013888888888888888,34.138888888888886,0)" xlink:href="#au"/><use transform="matrix(0.013888888888888888,0,0,0.013888888888888888,51.20833333333333,0)" xlink:href="#ad"/><use transform="matrix(0.013888888888888888,0,0,0.013888888888888888,68.27777777777777,0)" xlink:href="#as"/><use transform="matrix(0.013888888888888888,0,0,0.013888888888888888,85.34722222222221,0)" xlink:href="#ac"/><use transform="matrix(0.013888888888888888,0,0,0.013888888888888888,102.41666666666666,0)" xlink:href="#ai"/><use transform="matrix(0.013888888888888888,0,0,0.013888888888888888,119.4861111111111,0)" xlink:href="#aI"/><use transform="matrix(0.013888888888888888,0,0,0.013888888888888888,136.55555555555554,0)" xlink:href="#ag"/><use transform="matrix(0.013888888888888888,0,0,0.013888888888888888,153.625,0)" xlink:href="#aj"/><use transform="matrix(0.013888888888888888,0,0,0.013888888888888888,170.69444444444446,0)" xlink:href="#ak"/><use transform="matrix(0.013888888888888888,0,0,0.013888888888888888,187.7638888888889,0)" xlink:href="#ak"/><use transform="matrix(0.013888888888888888,0,0,0.013888888888888888,204.83333333333337,0)" xlink:href="#ak"/></g><path fill="#a31515" d="M614-1226c-167 1-283 53-283 213 0 183 186 193 334 234 230 63 463 120 463 409 0 286-219 387-518 390C309 23 131-98 79-338l185-37c34 165 149 248 351 246 184-2 324-58 324-238 0-203-207-221-372-266-210-57-422-111-422-377 0-267 201-356 470-360 279-5 430 101 480 324l-188 33c-28-141-121-215-293-213" id="aJ"/><path fill="#a31515" d="M162 0v-1349h919v156H353v422h668v154H353v461h769V0H162" id="aK"/><path fill="#a31515" d="M237 0v-1349h191v1193h672V0H237" id="aL"/><path fill="#a31515" d="M650-1214c-281 0-336 244-336 533 0 295 60 546 347 546 188 0 263-142 322-282l159 65C1058-155 935 20 659 20c-401 0-546-295-546-701 0-407 135-689 536-689 264 0 391 146 466 335l-168 65c-47-129-127-244-297-244" id="aM"/><path fill="#a31515" d="M709-1193V0H519v-1193H76v-156h1076v156H709" id="aN"/><g id="g"><use transform="matrix(0.013888888888888888,0,0,0.013888888888888888,0,0)" xlink:href="#aJ"/><use transform="matrix(0.013888888888888888,0,0,0.013888888888888888,17.069444444444443,0)" xlink:href="#aK"/><use transform="matrix(0.013888888888888888,0,0,0.013888888888888888,34.138888888888886,0)" xlink:href="#aL"/><use transform="matrix(0.013888888888888888,0,0,0.013888888888888888,51.20833333333333,0)" xlink:href="#aK"/><use transform="matrix(0.013888888888888888,0,0,0.013888888888888888,68.27777777777777,0)" xlink:href="#aM"/><use transform="matrix(0.013888888888888888,0,0,0.013888888888888888,85.34722222222221,0)" xlink:href="#aN"/></g><path fill="#a31515" d="M528 20c-247 0-343-132-343-381v-721h180v686c-4 177 45 284 224 277 194-8 279-136 279-336v-627h181c3 360-6 732 6 1082H885c-4-54-7-126-8-185h-3C809-64 714 20 528 20" id="aO"/><path fill="#a31515" d="M873-819c-18-114-119-146-250-146-163 0-245 50-245 151 0 151 170 148 294 185 182 54 388 94 388 320 0 240-189 325-439 329-245 4-410-69-454-268l159-31c24 133 136 168 295 165 144-2 270-31 270-171 0-164-195-160-331-202-167-52-350-87-350-299 0-218 173-315 413-313 220 2 373 77 412 260" id="aP"/><path fill="#a31515" d="M617-1102c355 0 481 238 477 599H322c5 222 84 388 301 388 144 0 244-59 284-166l158 45C1002-72 854 20 623 20c-342 0-490-220-490-568 0-346 151-554 484-554zm291 461c-18-192-90-328-289-328-194 0-287 128-295 328h584" id="aQ"/><path fill="#a31515" d="M839-1102c70 0 148 7 206 17v167c-112-18-268-36-363 15-129 69-208 203-208 395V0H294c-10-367 32-789-52-1082h171c21 75 41 161 48 250h5c67-152 152-270 373-270" id="aR"/><path fill="#a31515" d="M-5 220v-96h1238v96H-5" id="aS"/><path fill="#a31515" d="M745-142h380V0H143v-142h422v-798H246v-142h499v940zM545-1292v-192h200v192H545" id="aT"/><path fill="#a31515" d="M865-914c-3-187-2-380-2-570h180v1261c0 76 1 155 6 223H877c-8-49-9-116-10-174h-5C801-44 708 26 530 26c-135 0-234-46-297-139s-95-232-95-419c0-377 131-566 392-566 176 0 271 63 335 184zm-286-51c-222 0-255 197-255 427 0 229 31 425 253 425 237 0 286-195 286-441 0-238-52-411-284-411" id="aU"/><path fill="#a31515" d="M259 363l169-662h265L382 363H259" id="aV"/><g id="i"><use transform="matrix(0.013888888888888888,0,0,0.013888888888888888,0,0)" xlink:href="#aO"/><use transform="matrix(0.013888888888888888,0,0,0.013888888888888888,17.069444444444443,0)" xlink:href="#aP"/><use transform="matrix(0.013888888888888888,0,0,0.013888888888888888,34.138888888888886,0)" xlink:href="#aQ"/><use transform="matrix(0.013888888888888888,0,0,0.013888888888888888,51.20833333333333,0)" xlink:href="#aR"/><use transform="matrix(0.013888888888888888,0,0,0.013888888888888888,68.27777777777777,0)" xlink:href="#aS"/><use transform="matrix(0.013888888888888888,0,0,0.013888888888888888,85.34722222222221,0)" xlink:href="#aT"/><use transform="matrix(0.013888888888888888,0,0,0.013888888888888888,102.41666666666666,0)" xlink:href="#aU"/><use transform="matrix(0.013888888888888888,0,0,0.013888888888888888,119.4861111111111,0)" xlink:href="#aV"/></g><path fill="#a31515" d="M682 16c-209 0-323-80-324-285v-671H190v-142h170l58-282h120v282h432v142H538v652c2 114 60 155 182 155 106 0 209-16 297-34v137C921-4 806 16 682 16" id="aW"/><path fill="#a31515" d="M615-1102c343 0 484 203 482 560-1 347-147 562-488 562-336 0-475-219-479-562-4-349 156-560 485-560zm-8 989c240 0 301-180 301-429 0-245-55-427-290-427-236 0-299 181-299 427 0 243 61 429 288 429" id="aX"/><path fill="#a31515" d="M390 276c167 0 266-82 266-251v-965H249v-142h587V28c-4 270-165 397-431 397-107 0-208-16-288-43V242c80 18 173 34 273 34zm246-1568v-192h200v192H636" id="aY"/><path fill="#a31515" d="M706-1102c241 0 344 136 343 381V0H868v-695c1-168-57-273-220-268-190 6-283 138-283 336V0H185c-3-360 6-732-6-1082h170c4 54 7 126 8 185h3c63-121 164-204 346-205" id="aZ"/><path fill="#a31515" d="M891-1484c-201 251-362 514-362 954 0 441 161 704 362 955H701C500 176 342-90 342-532c0-440 159-704 359-952h190" id="ba"/><path fill="#a31515" d="M631 20c-350 0-501-215-501-562 0-355 162-560 502-560 250 0 399 118 446 323l-192 14c-23-124-109-196-262-196-242 0-305 171-305 415 1 245 61 427 304 427 151 0 248-77 267-215l190 12C1039-107 883 20 631 20" id="bb"/><path fill="#a31515" d="M671-1188l264-103 45 132-282 73 185 250-119 72-150-258-156 256-119-72 189-248-280-73 45-134 267 107-12-297h136" id="bc"/><path fill="#a31515" d="M528-1484c201 248 357 511 357 952 0 442-156 709-357 957H336C537 174 700-89 700-530c0-440-163-703-364-954h192" id="bd"/><g id="k"><use transform="matrix(0.013888888888888888,0,0,0.013888888888888888,0,0)" xlink:href="#aW"/><use transform="matrix(0.013888888888888888,0,0,0.013888888888888888,17.069444444444443,0)" xlink:href="#aX"/><use transform="matrix(0.013888888888888888,0,0,0.013888888888888888,34.138888888888886,0)" xlink:href="#aS"/><use transform="matrix(0.013888888888888888,0,0,0.013888888888888888,51.20833333333333,0)" xlink:href="#aY"/><use transform="matrix(0.013888888888888888,0,0,0.013888888888888888,68.27777777777777,0)" xlink:href="#aP"/><use transform="matrix(0.013888888888888888,0,0,0.013888888888888888,85.34722222222221,0)" xlink:href="#aX"/><use transform="matrix(0.013888888888888888,0,0,0.013888888888888888,102.41666666666666,0)" xlink:href="#aZ"/><use transform="matrix(0.013888888888888888,0,0,0.013888888888888888,119.4861111111111,0)" xlink:href="#ba"/><use transform="matrix(0.013888888888888888,0,0,0.013888888888888888,136.55555555555554,0)" xlink:href="#aP"/><use transform="matrix(0.013888888888888888,0,0,0.013888888888888888,153.625,0)" xlink:href="#aW"/><use transform="matrix(0.013888888888888888,0,0,0.013888888888888888,170.69444444444446,0)" xlink:href="#aR"/><use transform="matrix(0.013888888888888888,0,0,0.013888888888888888,187.7638888888889,0)" xlink:href="#aO"/><use transform="matrix(0.013888888888888888,0,0,0.013888888888888888,204.83333333333337,0)" xlink:href="#bb"/><use transform="matrix(0.013888888888888888,0,0,0.013888888888888888,221.90277777777783,0)" xlink:href="#aW"/><use transform="matrix(0.013888888888888888,0,0,0.013888888888888888,238.9722222222223,0)" xlink:href="#ba"/><use transform="matrix(0.013888888888888888,0,0,0.013888888888888888,256.04166666666674,0)" xlink:href="#bc"/><use transform="matrix(0.013888888888888888,0,0,0.013888888888888888,273.1111111111112,0)" xlink:href="#bd"/><use transform="matrix(0.013888888888888888,0,0,0.013888888888888888,290.18055555555566,0)" xlink:href="#bd"/></g><path fill="#a31515" d="M1034 0L896-382H333L196 0H0l510-1349h217L1228 0h-194zM847-531c-77-225-157-447-231-674-69 231-154 451-232 674h463" id="be"/><g id="l"><use transform="matrix(0.013888888888888888,0,0,0.013888888888888888,0,0)" xlink:href="#be"/><use transform="matrix(0.013888888888888888,0,0,0.013888888888888888,17.069444444444443,0)" xlink:href="#aJ"/></g><path fill="#a31515" d="M1018 0H814c-67-224-138-444-200-673C552-442 476-224 407 0H204L21-1082h178c43 310 105 601 126 933 54-225 128-425 193-638h193c63 212 134 415 185 638 22-336 90-622 136-933h176" id="bf"/><g id="m"><use transform="matrix(0.013888888888888888,0,0,0.013888888888888888,0,0)" xlink:href="#aR"/><use transform="matrix(0.013888888888888888,0,0,0.013888888888888888,17.069444444444443,0)" xlink:href="#aX"/><use transform="matrix(0.013888888888888888,0,0,0.013888888888888888,34.138888888888886,0)" xlink:href="#bf"/></g><path fill="#a31515" d="M385-1193v494h676v158H385V0H194v-1349h891v156H385" id="bg"/><path fill="#a31515" d="M1121-976c0 225-142 341-344 379L1177 0H957L591-575H353V0H162v-1349h482c281 3 477 100 477 373zM633-726c181-1 296-73 296-247 0-149-101-223-304-223H353v470h280" id="bh"/><path fill="#a31515" d="M102-681c0-398 126-689 513-689 165 0 291 58 379 174s132 287 132 515c-1 318-88 554-298 657-123 61-317 58-438-3-206-104-288-341-288-654zm749 406c94-160 97-656-5-807-57-85-130-132-231-132-104 0-178 47-234 132-101 153-99 655 1 809 57 89 130 138 232 138 109 0 184-49 237-140" id="bi"/><path fill="#a31515" d="M285-1169c8 382 2 780 4 1169H129v-1349h237c86 239 188 461 253 720 69-258 169-481 255-720h225V0H937c2-390-5-788 6-1169-75 255-170 488-259 729H547c-90-240-185-475-262-729" id="bj"/><g id="n"><use transform="matrix(0.013888888888888888,0,0,0.013888888888888888,0,0)" xlink:href="#bg"/><use transform="matrix(0.013888888888888888,0,0,0.013888888888888888,17.069444444444443,0)" xlink:href="#bh"/><use transform="matrix(0.013888888888888888,0,0,0.013888888888888888,34.138888888888886,0)" xlink:href="#bi"/><use transform="matrix(0.013888888888888888,0,0,0.013888888888888888,51.20833333333333,0)" xlink:href="#bj"/></g><path fill="#00f" d="M677 91c1 136 41 195 171 195h213v139H796c-186-8-294-116-294-303v-351c-3-164-120-222-275-232v-137c155-10 275-69 275-231v-352c6-189 106-303 294-303h265v139H848c-126-3-171 67-171 195v346c-5 158-108 234-231 274 128 36 231 115 231 274V91" id="bk"/><path fill="#00f" d="M839-1335c-182-6-269 67-259 253h491v142H580V0H400v-940H138v-142h262c-15-293 132-408 418-402 94 2 200 7 281 21v145c-75-10-177-14-260-17" id="bl"/><path fill="#00f" d="M528 20c-247 0-343-132-343-381v-721h180v686c-4 177 45 284 224 277 194-8 279-136 279-336v-627h181c3 360-6 732 6 1082H885c-4-54-7-126-8-185h-3C809-64 714 20 528 20" id="bm"/><path fill="#00f" d="M736-142h380V0H134v-142h422v-1200H267v-142h469v1342" id="bn"/><path fill="#00f" d="M-5 220v-96h1238v96H-5" id="bo"/><path fill="#00f" d="M682 16c-209 0-323-80-324-285v-671H190v-142h170l58-282h120v282h432v142H538v652c2 114 60 155 182 155 106 0 209-16 297-34v137C921-4 806 16 682 16" id="bp"/><path fill="#00f" d="M1000-272c3 95 12 159 101 161 21 0 41-3 59-7V-6c-44 10-86 16-139 16-141 2-191-84-197-217h-6C748-76 648 20 446 20c-207 0-318-120-318-322 0-266 194-348 454-354l236-4c12-191-40-305-222-305-140 0-220 47-232 172l-188-17c33-204 181-292 423-292 255 0 401 118 401 364v466zm-683-27c0 109 63 184 175 182 166-3 259-96 306-217 24-65 20-120 20-200-232 7-501-28-501 235" id="bq"/><path fill="#00f" d="M365-904c58-129 161-200 334-200 130 0 228 46 293 138s98 233 98 420c0 189-34 331-102 425S824 20 698 20c-170 0-275-64-336-184 0 55-3 116-9 164H179c5-68 6-147 6-223v-1261h180c-2 193 4 394-4 580h4zm283 791c221 0 256-197 256-427 0-229-34-425-254-425-236 0-285 195-285 441 0 237 53 411 283 411" id="br"/><path fill="#00f" d="M617-1102c355 0 481 238 477 599H322c5 222 84 388 301 388 144 0 244-59 284-166l158 45C1002-72 854 20 623 20c-342 0-490-220-490-568 0-346 151-554 484-554zm291 461c-18-192-90-328-289-328-194 0-287 128-295 328h584" id="bs"/><path fill="#00f" d="M706-1102c241 0 344 136 343 381V0H868v-695c1-168-57-273-220-268-190 6-283 138-283 336V0H185c-3-360 6-732-6-1082h170c4 54 7 126 8 185h3c63-121 164-204 346-205" id="bt"/><path fill="#00f" d="M904-1102c199 0 220 177 220 381V0H956v-686c-3-114 0-215-60-264-70-33-125-4-158 71-26 56-39 140-39 252V0H531v-686c-3-114-1-215-61-264-78-41-136 24-157 84-24 69-39 159-39 259V0H105c-3-360 6-732-6-1082h149c6 50 3 123 8 175 36-100 83-195 216-195 135 0 166 79 196 196 42-105 93-196 236-196" id="bu"/><path fill="#00f" d="M726 122c-7 187-108 303-294 303H167V286h213c129-2 172-59 172-195v-347c5-160 106-236 230-276-125-36-230-116-230-272v-346c2-128-45-195-172-195H167v-139h265c187 7 294 114 294 303v352c4 162 120 221 275 231v137c-155 10-275 68-275 232v351" id="bv"/><g id="o"><use transform="matrix(0.013888888888888888,0,0,0.013888888888888888,0,0)" xlink:href="#bk"/><use transform="matrix(0.013888888888888888,0,0,0.013888888888888888,17.069444444444443,0)" xlink:href="#bl"/><use transform="matrix(0.013888888888888888,0,0,0.013888888888888888,34.138888888888886,0)" xlink:href="#bm"/><use transform="matrix(0.013888888888888888,0,0,0.013888888888888888,51.20833333333333,0)" xlink:href="#bn"/><use transform="matrix(0.013888888888888888,0,0,0.013888888888888888,68.27777777777777,0)" xlink:href="#bn"/><use transform="matrix(0.013888888888888888,0,0,0.013888888888888888,85.34722222222221,0)" xlink:href="#bo"/><use transform="matrix(0.013888888888888888,0,0,0.013888888888888888,102.41666666666666,0)" xlink:href="#bp"/><use transform="matrix(0.013888888888888888,0,0,0.013888888888888888,119.4861111111111,0)" xlink:href="#bq"/><use transform="matrix(0.013888888888888888,0,0,0.013888888888888888,136.55555555555554,0)" xlink:href="#br"/><use transform="matrix(0.013888888888888888,0,0,0.013888888888888888,153.625,0)" xlink:href="#bn"/><use transform="matrix(0.013888888888888888,0,0,0.013888888888888888,170.69444444444446,0)" xlink:href="#bs"/><use transform="matrix(0.013888888888888888,0,0,0.013888888888888888,187.7638888888889,0)" xlink:href="#bo"/><use transform="matrix(0.013888888888888888,0,0,0.013888888888888888,204.83333333333337,0)" xlink:href="#bt"/><use transform="matrix(0.013888888888888888,0,0,0.013888888888888888,221.90277777777783,0)" xlink:href="#bq"/><use transform="matrix(0.013888888888888888,0,0,0.013888888888888888,238.9722222222223,0)" xlink:href="#bu"/><use transform="matrix(0.013888888888888888,0,0,0.013888888888888888,256.04166666666674,0)" xlink:href="#bs"/><use transform="matrix(0.013888888888888888,0,0,0.013888888888888888,273.1111111111112,0)" xlink:href="#bv"/></g><path fill="#a31515" d="M1018 0H810c-67-251-137-496-194-756C558-495 487-250 419 0H211L0-1349h189c48 393 110 772 142 1181 58-262 128-512 197-763h175c69 251 139 500 197 763 37-402 92-789 139-1181h189" id="bw"/><path fill="#a31515" d="M875 0v-623H353V0H162v-1349h191v566h522v-566h191V0H875" id="bx"/><g id="p"><use transform="matrix(0.013888888888888888,0,0,0.013888888888888888,0,0)" xlink:href="#bw"/><use transform="matrix(0.013888888888888888,0,0,0.013888888888888888,17.069444444444443,0)" xlink:href="#bx"/><use transform="matrix(0.013888888888888888,0,0,0.013888888888888888,34.138888888888886,0)" xlink:href="#aK"/><use transform="matrix(0.013888888888888888,0,0,0.013888888888888888,51.20833333333333,0)" xlink:href="#bh"/><use transform="matrix(0.013888888888888888,0,0,0.013888888888888888,68.27777777777777,0)" xlink:href="#aK"/></g><g id="q"><use transform="matrix(0.013888888888888888,0,0,0.013888888888888888,0,0)" xlink:href="#aO"/><use transform="matrix(0.013888888888888888,0,0,0.013888888888888888,17.069444444444443,0)" xlink:href="#aP"/><use transform="matrix(0.013888888888888888,0,0,0.013888888888888888,34.138888888888886,0)" xlink:href="#aQ"/><use transform="matrix(0.013888888888888888,0,0,0.013888888888888888,51.20833333333333,0)" xlink:href="#aR"/><use transform="matrix(0.013888888888888888,0,0,0.013888888888888888,68.27777777777777,0)" xlink:href="#aS"/><use transform="matrix(0.013888888888888888,0,0,0.013888888888888888,85.34722222222221,0)" xlink:href="#aT"/><use transform="matrix(0.013888888888888888,0,0,0.013888888888888888,102.41666666666666,0)" xlink:href="#aU"/></g><path fill="#a31515" d="M116-856v-148h995v148H116zm0 512v-148h995v148H116" id="by"/><use transform="matrix(0.013888888888888888,0,0,0.013888888888888888,0,0)" xlink:href="#by" id="r"/><path fill="#a31515" d="M684-845H543l-41-639h224" id="bz"/><path fill="#a31515" d="M937-319V0H757v-319H103v-140l635-890h199v888h188v142H937zm-180-835L257-461h500v-693" id="bA"/><path fill="#a31515" d="M611-1370c266 0 451 106 451 368 0 147-77 243-154 327-132 144-316 255-451 395-42 44-75 87-96 134h723V0H144v-117c124-264 387-411 582-603 73-72 151-147 151-271 0-161-104-231-266-231-163 0-249 90-268 238l-184-17c35-233 185-369 452-369" id="bB"/><g id="s"><use transform="matrix(0.013888888888888888,0,0,0.013888888888888888,0,0)" xlink:href="#bz"/><use transform="matrix(0.013888888888888888,0,0,0.013888888888888888,17.069444444444443,0)" xlink:href="#bA"/><use transform="matrix(0.013888888888888888,0,0,0.013888888888888888,34.138888888888886,0)" xlink:href="#bB"/><use transform="matrix(0.013888888888888888,0,0,0.013888888888888888,51.20833333333333,0)" xlink:href="#bz"/><use transform="matrix(0.013888888888888888,0,0,0.013888888888888888,68.27777777777777,0)" xlink:href="#ak"/><use transform="matrix(0.013888888888888888,0,0,0.013888888888888888,85.34722222222221,0)" xlink:href="#ak"/><use transform="matrix(0.013888888888888888,0,0,0.013888888888888888,102.41666666666666,0)" xlink:href="#ak"/><use transform="matrix(0.013888888888888888,0,0,0.013888888888888888,119.4861111111111,0)" xlink:href="#ar"/></g><path fill="#795e26" d="M865-914c-3-187-2-380-2-570h180v1261c0 76 1 155 6 223H877c-8-49-9-116-10-174h-5C801-44 708 26 530 26c-135 0-234-46-297-139s-95-232-95-419c0-377 131-566 392-566 176 0 271 63 335 184zm-286-51c-222 0-255 197-255 427 0 229 31 425 253 425 237 0 286-195 286-441 0-238-52-411-284-411" id="bC"/><path fill="#795e26" d="M698-1104c312 3 392 244 392 558 0 315-82 566-392 566-169 0-277-65-331-184h-5c8 188 2 394 4 589H185V-858c0-76-1-156-6-224h175c6 52 9 120 10 178h4c58-122 150-202 330-200zm-49 991c225 0 255-203 255-433 0-225-32-419-253-419-236 0-285 192-285 441 0 237 53 411 283 411" id="bD"/><g id="t"><use transform="matrix(0.013888888888888888,0,0,0.013888888888888888,0,0)" xlink:href="#X"/><use transform="matrix(0.013888888888888888,0,0,0.013888888888888888,17.069444444444443,0)" xlink:href="#bC"/><use transform="matrix(0.013888888888888888,0,0,0.013888888888888888,34.138888888888886,0)" xlink:href="#au"/><use transform="matrix(0.013888888888888888,0,0,0.013888888888888888,51.20833333333333,0)" xlink:href="#ai"/><use transform="matrix(0.013888888888888888,0,0,0.013888888888888888,68.27777777777777,0)" xlink:href="#bD"/><use transform="matrix(0.013888888888888888,0,0,0.013888888888888888,85.34722222222221,0)" xlink:href="#ag"/><use transform="matrix(0.013888888888888888,0,0,0.013888888888888888,102.41666666666666,0)" xlink:href="#ae"/><use transform="matrix(0.013888888888888888,0,0,0.013888888888888888,119.4861111111111,0)" xlink:href="#aF"/><use transform="matrix(0.013888888888888888,0,0,0.013888888888888888,136.55555555555554,0)" xlink:href="#aj"/><use transform="matrix(0.013888888888888888,0,0,0.013888888888888888,153.625,0)" xlink:href="#ar"/></g><path fill="#3a414a" d="M63-220v92h138v28H63V0H30v-248h175v28H63" id="bE"/><path fill="#3a414a" d="M100-194c62-1 85 37 85 99 1 63-27 99-86 99S16-35 15-95c0-66 28-99 85-99zM99-20c44 1 53-31 53-75 0-43-8-75-51-75s-53 32-53 75 10 74 51 75" id="bF"/><path fill="#3a414a" d="M114-163C36-179 61-72 57 0H25l-1-190h30c1 12-1 29 2 39 6-27 23-49 58-41v29" id="bG"/><g id="u"><use transform="matrix(0.04320987654320987,0,0,0.04320987654320987,0,0)" xlink:href="#bE"/><use transform="matrix(0.04320987654320987,0,0,0.04320987654320987,9.46296296296296,0)" xlink:href="#bF"/><use transform="matrix(0.04320987654320987,0,0,0.04320987654320987,18.104938271604933,0)" xlink:href="#bG"/></g><path fill="#3a414a" d="M141-36C126-15 110 5 73 4 37 3 15-17 15-53c-1-64 63-63 125-63 3-35-9-54-41-54-24 1-41 7-42 31l-33-3c5-37 33-52 76-52 45 0 72 20 72 64v82c-1 20 7 32 28 27v20c-31 9-61-2-59-35zM48-53c0 20 12 33 32 33 41-3 63-29 60-74-43 2-92-5-92 41" id="bH"/><path fill="#3a414a" d="M24 0v-261h32V0H24" id="bI"/><g id="v"><use transform="matrix(0.04320987654320987,0,0,0.04320987654320987,0,0)" xlink:href="#bH"/><use transform="matrix(0.04320987654320987,0,0,0.04320987654320987,8.641975308641973,0)" xlink:href="#bI"/><use transform="matrix(0.04320987654320987,0,0,0.04320987654320987,12.055555555555554,0)" xlink:href="#bI"/></g><path fill="#3a414a" d="M59-47c-2 24 18 29 38 22v24C64 9 27 4 27-40v-127H5v-23h24l9-43h21v43h35v23H59v120" id="bJ"/><path fill="#3a414a" d="M115-194c53 0 69 39 70 98 0 66-23 100-70 100C84 3 66-7 56-30L54 0H23l1-261h32v101c10-23 28-34 59-34zm-8 174c40 0 45-34 45-75 0-40-5-75-45-74-42 0-51 32-51 76 0 43 10 73 51 73" id="bK"/><path fill="#3a414a" d="M100-194c63 0 86 42 84 106H49c0 40 14 67 53 68 26 1 43-12 49-29l28 8c-11 28-37 45-77 45C44 4 14-33 15-96c1-61 26-98 85-98zm52 81c6-60-76-77-97-28-3 7-6 17-6 28h103" id="bL"/><path fill="#3a414a" d="M135-143c-3-34-86-38-87 0 15 53 115 12 119 90S17 21 10-45l28-5c4 36 97 45 98 0-10-56-113-15-118-90-4-57 82-63 122-42 12 7 21 19 24 35" id="bM"/><g id="w"><use transform="matrix(0.04320987654320987,0,0,0.04320987654320987,0,0)" xlink:href="#bJ"/><use transform="matrix(0.04320987654320987,0,0,0.04320987654320987,4.320987654320986,0)" xlink:href="#bH"/><use transform="matrix(0.04320987654320987,0,0,0.04320987654320987,12.962962962962958,0)" xlink:href="#bK"/><use transform="matrix(0.04320987654320987,0,0,0.04320987654320987,21.60493827160493,0)" xlink:href="#bI"/><use transform="matrix(0.04320987654320987,0,0,0.04320987654320987,25.01851851851851,0)" xlink:href="#bL"/><use transform="matrix(0.04320987654320987,0,0,0.04320987654320987,33.66049382716048,0)" xlink:href="#bM"/></g><path fill="#3a414a" d="M24-231v-30h32v30H24zM24 0v-190h32V0H24" id="bN"/><path fill="#3a414a" d="M117-194c89-4 53 116 60 194h-32v-121c0-31-8-49-39-48C34-167 62-67 57 0H25l-1-190h30c1 10-1 24 2 32 11-22 29-35 61-36" id="bO"/><g id="x"><use transform="matrix(0.04320987654320987,0,0,0.04320987654320987,0,0)" xlink:href="#bN"/><use transform="matrix(0.04320987654320987,0,0,0.04320987654320987,3.4135802469135794,0)" xlink:href="#bO"/></g><path fill="#3a414a" d="M109-170H84l-4-78h32zm-65 0H19l-4-78h33" id="bP"/><path fill="#3a414a" d="M115-194c55 1 70 41 70 98S169 2 115 4C84 4 66-9 55-30l1 105H24l-1-265h31l2 30c10-21 28-34 59-34zm-8 174c40 0 45-34 45-75s-6-73-45-74c-42 0-51 32-51 76 0 43 10 73 51 73" id="bQ"/><path fill="#3a414a" d="M85-194c31 0 48 13 60 33l-1-100h32l1 261h-30c-2-10 0-23-3-31C134-8 116 4 85 4 32 4 16-35 15-94c0-66 23-100 70-100zm9 24c-40 0-46 34-46 75 0 40 6 74 45 74 42 0 51-32 51-76 0-42-9-74-50-73" id="bR"/><g id="y"><use transform="matrix(0.04320987654320987,0,0,0.04320987654320987,0,0)" xlink:href="#bP"/><use transform="matrix(0.04320987654320987,0,0,0.04320987654320987,5.487654320987653,0)" xlink:href="#bQ"/><use transform="matrix(0.04320987654320987,0,0,0.04320987654320987,14.129629629629626,0)" xlink:href="#bG"/><use transform="matrix(0.04320987654320987,0,0,0.04320987654320987,19.2716049382716,0)" xlink:href="#bF"/><use transform="matrix(0.04320987654320987,0,0,0.04320987654320987,27.913580246913575,0)" xlink:href="#bR"/><use transform="matrix(0.04320987654320987,0,0,0.04320987654320987,36.55555555555555,0)" xlink:href="#bP"/></g><path fill="#3a414a" d="M96-169c-40 0-48 33-48 73s9 75 48 75c24 0 41-14 43-38l32 2c-6 37-31 61-74 61-59 0-76-41-82-99-10-93 101-131 147-64 4 7 5 14 7 22l-32 3c-4-21-16-35-41-35" id="bS"/><path fill="#3a414a" d="M177-190C167-65 218 103 67 71c-23-6-38-20-44-43l32-5c15 47 100 32 89-28v-30C133-14 115 1 83 1 29 1 15-40 15-95c0-56 16-97 71-98 29-1 48 16 59 35 1-10 0-23 2-32h30zM94-22c36 0 50-32 50-73 0-42-14-75-50-75-39 0-46 34-46 75s6 73 46 73" id="bT"/><g id="z"><use transform="matrix(0.04320987654320987,0,0,0.04320987654320987,0,0)" xlink:href="#bS"/><use transform="matrix(0.04320987654320987,0,0,0.04320987654320987,7.777777777777776,0)" xlink:href="#bH"/><use transform="matrix(0.04320987654320987,0,0,0.04320987654320987,16.41975308641975,0)" xlink:href="#bJ"/><use transform="matrix(0.04320987654320987,0,0,0.04320987654320987,20.740740740740737,0)" xlink:href="#bH"/><use transform="matrix(0.04320987654320987,0,0,0.04320987654320987,29.382716049382708,0)" xlink:href="#bI"/><use transform="matrix(0.04320987654320987,0,0,0.04320987654320987,32.79629629629629,0)" xlink:href="#bF"/><use transform="matrix(0.04320987654320987,0,0,0.04320987654320987,41.438271604938265,0)" xlink:href="#bT"/></g><path fill="#3a414a" d="M185-189c-5-48-123-54-124 2 14 75 158 14 163 119 3 78-121 87-175 55-17-10-28-26-33-46l33-7c5 56 141 63 141-1 0-78-155-14-162-118-5-82 145-84 179-34 5 7 8 16 11 25" id="bU"/><g id="A"><use transform="matrix(0.04320987654320987,0,0,0.04320987654320987,0,0)" xlink:href="#bU"/><use transform="matrix(0.04320987654320987,0,0,0.04320987654320987,10.370370370370368,0)" xlink:href="#bL"/><use transform="matrix(0.04320987654320987,0,0,0.04320987654320987,19.01234567901234,0)" xlink:href="#bI"/><use transform="matrix(0.04320987654320987,0,0,0.04320987654320987,22.42592592592592,0)" xlink:href="#bL"/><use transform="matrix(0.04320987654320987,0,0,0.04320987654320987,31.06790123456789,0)" xlink:href="#bS"/><use transform="matrix(0.04320987654320987,0,0,0.04320987654320987,38.84567901234567,0)" xlink:href="#bJ"/></g><path fill="#3a414a" d="M179-190L93 31C79 59 56 82 12 73V49c39 6 53-20 64-50L1-190h34L92-34l54-156h33" id="bV"/><g id="B"><use transform="matrix(0.04320987654320987,0,0,0.04320987654320987,0,0)" xlink:href="#bF"/><use transform="matrix(0.04320987654320987,0,0,0.04320987654320987,8.641975308641973,0)" xlink:href="#bO"/><use transform="matrix(0.04320987654320987,0,0,0.04320987654320987,17.283950617283946,0)" xlink:href="#bI"/><use transform="matrix(0.04320987654320987,0,0,0.04320987654320987,20.697530864197525,0)" xlink:href="#bV"/></g><path fill="#3a414a" d="M106-169C34-169 62-67 57 0H25v-261h32l-1 103c12-21 28-36 61-36 89 0 53 116 60 194h-32v-121c2-32-8-49-39-48" id="bW"/><g id="C"><use transform="matrix(0.04320987654320987,0,0,0.04320987654320987,0,0)" xlink:href="#bJ"/><use transform="matrix(0.04320987654320987,0,0,0.04320987654320987,4.320987654320986,0)" xlink:href="#bW"/><use transform="matrix(0.04320987654320987,0,0,0.04320987654320987,12.962962962962958,0)" xlink:href="#bH"/><use transform="matrix(0.04320987654320987,0,0,0.04320987654320987,21.60493827160493,0)" xlink:href="#bJ"/></g><g id="D"><use transform="matrix(0.04320987654320987,0,0,0.04320987654320987,0,0)" xlink:href="#bS"/><use transform="matrix(0.04320987654320987,0,0,0.04320987654320987,7.777777777777776,0)" xlink:href="#bF"/><use transform="matrix(0.04320987654320987,0,0,0.04320987654320987,16.41975308641975,0)" xlink:href="#bO"/><use transform="matrix(0.04320987654320987,0,0,0.04320987654320987,25.061728395061724,0)" xlink:href="#bJ"/><use transform="matrix(0.04320987654320987,0,0,0.04320987654320987,29.382716049382708,0)" xlink:href="#bH"/><use transform="matrix(0.04320987654320987,0,0,0.04320987654320987,38.02469135802468,0)" xlink:href="#bN"/><use transform="matrix(0.04320987654320987,0,0,0.04320987654320987,41.438271604938265,0)" xlink:href="#bO"/></g><use transform="matrix(0.04320987654320987,0,0,0.04320987654320987,0,0)" xlink:href="#bH" id="E"/><path fill="#3a414a" d="M84 4C-5 8 30-112 23-190h32v120c0 31 7 50 39 49 72-2 45-101 50-169h31l1 190h-30c-1-10 1-25-2-33-11 22-28 36-60 37" id="bX"/><path fill="#3a414a" d="M210-169c-67 3-38 105-44 169h-31v-121c0-29-5-50-35-48C34-165 62-65 56 0H25l-1-190h30c1 10-1 24 2 32 10-44 99-50 107 0 11-21 27-35 58-36 85-2 47 119 55 194h-31v-121c0-29-5-49-35-48" id="bY"/><g id="F"><use transform="matrix(0.04320987654320987,0,0,0.04320987654320987,0,0)" xlink:href="#bS"/><use transform="matrix(0.04320987654320987,0,0,0.04320987654320987,7.777777777777776,0)" xlink:href="#bF"/><use transform="matrix(0.04320987654320987,0,0,0.04320987654320987,16.41975308641975,0)" xlink:href="#bI"/><use transform="matrix(0.04320987654320987,0,0,0.04320987654320987,19.83333333333333,0)" xlink:href="#bX"/><use transform="matrix(0.04320987654320987,0,0,0.04320987654320987,28.475308641975303,0)" xlink:href="#bY"/><use transform="matrix(0.04320987654320987,0,0,0.04320987654320987,41.39506172839505,0)" xlink:href="#bO"/></g><path fill="#3a414a" d="M-5 72V49h209v23H-5" id="bZ"/><g id="G"><use transform="matrix(0.04320987654320987,0,0,0.04320987654320987,0,0)" xlink:href="#bP"/><use transform="matrix(0.04320987654320987,0,0,0.04320987654320987,5.487654320987653,0)" xlink:href="#bX"/><use transform="matrix(0.04320987654320987,0,0,0.04320987654320987,14.129629629629626,0)" xlink:href="#bM"/><use transform="matrix(0.04320987654320987,0,0,0.04320987654320987,21.9074074074074,0)" xlink:href="#bL"/><use transform="matrix(0.04320987654320987,0,0,0.04320987654320987,30.549382716049372,0)" xlink:href="#bG"/><use transform="matrix(0.04320987654320987,0,0,0.04320987654320987,35.69135802469135,0)" xlink:href="#bZ"/><use transform="matrix(0.04320987654320987,0,0,0.04320987654320987,44.33333333333332,0)" xlink:href="#bN"/><use transform="matrix(0.04320987654320987,0,0,0.04320987654320987,47.746913580246904,0)" xlink:href="#bR"/><use transform="matrix(0.04320987654320987,0,0,0.04320987654320987,56.38888888888888,0)" xlink:href="#bP"/></g><path fill="#3a414a" d="M233-177c-1 41-23 64-60 70L243 0h-38l-65-103H63V0H30v-248c88 3 205-21 203 71zM63-129c60-2 137 13 137-47 0-61-80-42-137-45v92" id="ca"/><g id="H"><use transform="matrix(0.04320987654320987,0,0,0.04320987654320987,0,0)" xlink:href="#ca"/><use transform="matrix(0.04320987654320987,0,0,0.04320987654320987,11.191358024691356,0)" xlink:href="#bX"/><use transform="matrix(0.04320987654320987,0,0,0.04320987654320987,19.83333333333333,0)" xlink:href="#bO"/></g><path fill="#3a414a" d="M101-251c82-7 93 87 43 132L82-64C71-53 59-42 53-27h129V0H18c2-99 128-94 128-182 0-28-16-43-45-43s-46 15-49 41l-32-3c6-41 34-60 81-64" id="cb"/><path fill="#3a414a" d="M101-251c68 0 85 55 85 127S166 4 100 4C33 4 14-52 14-124c0-73 17-127 87-127zm-1 229c47 0 54-49 54-102s-4-102-53-102c-51 0-55 48-55 102 0 53 5 102 54 102" id="cc"/><g id="I"><use transform="matrix(0.04320987654320987,0,0,0.04320987654320987,0,0)" xlink:href="#cb"/><use transform="matrix(0.04320987654320987,0,0,0.04320987654320987,8.641975308641973,0)" xlink:href="#cc"/></g><g id="J"><use transform="matrix(0.04320987654320987,0,0,0.04320987654320987,0,0)" xlink:href="#bS"/><use transform="matrix(0.04320987654320987,0,0,0.04320987654320987,7.777777777777776,0)" xlink:href="#bF"/><use transform="matrix(0.04320987654320987,0,0,0.04320987654320987,16.41975308641975,0)" xlink:href="#bO"/><use transform="matrix(0.04320987654320987,0,0,0.04320987654320987,25.061728395061724,0)" xlink:href="#bS"/><use transform="matrix(0.04320987654320987,0,0,0.04320987654320987,32.8395061728395,0)" xlink:href="#bX"/><use transform="matrix(0.04320987654320987,0,0,0.04320987654320987,41.481481481481474,0)" xlink:href="#bG"/><use transform="matrix(0.04320987654320987,0,0,0.04320987654320987,46.62345679012345,0)" xlink:href="#bG"/><use transform="matrix(0.04320987654320987,0,0,0.04320987654320987,51.76543209876542,0)" xlink:href="#bL"/><use transform="matrix(0.04320987654320987,0,0,0.04320987654320987,60.4074074074074,0)" xlink:href="#bO"/><use transform="matrix(0.04320987654320987,0,0,0.04320987654320987,69.04938271604937,0)" xlink:href="#bJ"/></g><path fill="#3a414a" d="M145-31C134-9 116 4 85 4 32 4 16-35 15-94c0-59 17-99 70-100 32-1 48 14 60 33 0-11-1-24 2-32h30l-1 268h-32zM93-21c41 0 51-33 51-76s-8-73-50-73c-40 0-46 35-46 75s5 74 45 74" id="cd"/><g id="K"><use transform="matrix(0.04320987654320987,0,0,0.04320987654320987,0,0)" xlink:href="#cd"/><use transform="matrix(0.04320987654320987,0,0,0.04320987654320987,8.641975308641973,0)" xlink:href="#bX"/><use transform="matrix(0.04320987654320987,0,0,0.04320987654320987,17.283950617283946,0)" xlink:href="#bL"/><use transform="matrix(0.04320987654320987,0,0,0.04320987654320987,25.925925925925917,0)" xlink:href="#bG"/><use transform="matrix(0.04320987654320987,0,0,0.04320987654320987,31.06790123456789,0)" xlink:href="#bN"/><use transform="matrix(0.04320987654320987,0,0,0.04320987654320987,34.481481481481474,0)" xlink:href="#bL"/><use transform="matrix(0.04320987654320987,0,0,0.04320987654320987,43.12345679012345,0)" xlink:href="#bM"/></g><g id="L"><use transform="matrix(0.04320987654320987,0,0,0.04320987654320987,0,0)" xlink:href="#bH"/><use transform="matrix(0.04320987654320987,0,0,0.04320987654320987,8.641975308641973,0)" xlink:href="#bJ"/></g><g id="M"><use transform="matrix(0.04320987654320987,0,0,0.04320987654320987,0,0)" xlink:href="#bJ"/><use transform="matrix(0.04320987654320987,0,0,0.04320987654320987,4.320987654320986,0)" xlink:href="#bW"/><use transform="matrix(0.04320987654320987,0,0,0.04320987654320987,12.962962962962958,0)" xlink:href="#bL"/></g><g id="N"><use transform="matrix(0.04320987654320987,0,0,0.04320987654320987,0,0)" xlink:href="#bJ"/><use transform="matrix(0.04320987654320987,0,0,0.04320987654320987,4.320987654320986,0)" xlink:href="#bN"/><use transform="matrix(0.04320987654320987,0,0,0.04320987654320987,7.734567901234566,0)" xlink:href="#bY"/><use transform="matrix(0.04320987654320987,0,0,0.04320987654320987,20.654320987654316,0)" xlink:href="#bL"/></g><path fill="#3a414a" d="M143 4C61 4 22-44 18-125c-5-107 100-154 193-111 17 8 29 25 37 43l-32 9c-13-25-37-40-76-40-61 0-88 39-88 99 0 61 29 100 91 101 35 0 62-11 79-27v-45h-74v-28h105v86C228-13 192 4 143 4" id="ce"/><g id="O"><use transform="matrix(0.04320987654320987,0,0,0.04320987654320987,0,0)" xlink:href="#ce"/><use transform="matrix(0.04320987654320987,0,0,0.04320987654320987,12.098765432098762,0)" xlink:href="#bL"/><use transform="matrix(0.04320987654320987,0,0,0.04320987654320987,20.740740740740733,0)" xlink:href="#bJ"/></g><path fill="#3a414a" d="M108 0H70L1-190h34L89-25l56-165h34" id="cf"/><g id="P"><use transform="matrix(0.04320987654320987,0,0,0.04320987654320987,0,0)" xlink:href="#bH"/><use transform="matrix(0.04320987654320987,0,0,0.04320987654320987,8.641975308641973,0)" xlink:href="#cf"/><use transform="matrix(0.04320987654320987,0,0,0.04320987654320987,16.41975308641975,0)" xlink:href="#bH"/><use transform="matrix(0.04320987654320987,0,0,0.04320987654320987,25.061728395061724,0)" xlink:href="#bN"/><use transform="matrix(0.04320987654320987,0,0,0.04320987654320987,28.475308641975296,0)" xlink:href="#bI"/><use transform="matrix(0.04320987654320987,0,0,0.04320987654320987,31.88888888888888,0)" xlink:href="#bH"/><use transform="matrix(0.04320987654320987,0,0,0.04320987654320987,40.53086419753085,0)" xlink:href="#bK"/><use transform="matrix(0.04320987654320987,0,0,0.04320987654320987,49.17283950617283,0)" xlink:href="#bI"/><use transform="matrix(0.04320987654320987,0,0,0.04320987654320987,52.58641975308641,0)" xlink:href="#bL"/></g><g id="Q"><use transform="matrix(0.04320987654320987,0,0,0.04320987654320987,0,0)" xlink:href="#bR"/><use transform="matrix(0.04320987654320987,0,0,0.04320987654320987,8.641975308641973,0)" xlink:href="#bH"/><use transform="matrix(0.04320987654320987,0,0,0.04320987654320987,17.283950617283946,0)" xlink:href="#bJ"/><use transform="matrix(0.04320987654320987,0,0,0.04320987654320987,21.604938271604933,0)" xlink:href="#bH"/></g><path fill="#3a414a" d="M101-234c-31-9-42 10-38 44h38v23H63V0H32v-167H5v-23h27c-7-52 17-82 69-68v24" id="cg"/><g id="R"><use transform="matrix(0.04320987654320987,0,0,0.04320987654320987,0,0)" xlink:href="#cg"/><use transform="matrix(0.04320987654320987,0,0,0.04320987654320987,4.320987654320986,0)" xlink:href="#bF"/><use transform="matrix(0.04320987654320987,0,0,0.04320987654320987,12.962962962962958,0)" xlink:href="#bG"/></g><g id="S"><use transform="matrix(0.04320987654320987,0,0,0.04320987654320987,0,0)" xlink:href="#bX"/><use transform="matrix(0.04320987654320987,0,0,0.04320987654320987,8.641975308641973,0)" xlink:href="#bM"/><use transform="matrix(0.04320987654320987,0,0,0.04320987654320987,16.41975308641975,0)" xlink:href="#bL"/><use transform="matrix(0.04320987654320987,0,0,0.04320987654320987,25.061728395061724,0)" xlink:href="#bG"/><use transform="matrix(0.04320987654320987,0,0,0.04320987654320987,30.2037037037037,0)" xlink:href="#bZ"/><use transform="matrix(0.04320987654320987,0,0,0.04320987654320987,38.84567901234567,0)" xlink:href="#bN"/><use transform="matrix(0.04320987654320987,0,0,0.04320987654320987,42.25925925925925,0)" xlink:href="#bR"/></g><path fill="#3a414a" d="M18-150v-26h174v26H18zm0 90v-26h174v26H18" id="ch"/><use transform="matrix(0.04320987654320987,0,0,0.04320987654320987,0,0)" xlink:href="#ch" id="T"/><path fill="#3a414a" d="M155-56V0h-30v-56H8v-25l114-167h33v167h35v25h-35zm-30-156c-27 46-58 90-88 131h88v-131" id="ci"/><g id="U"><use transform="matrix(0.04320987654320987,0,0,0.04320987654320987,0,0)" xlink:href="#bP"/><use transform="matrix(0.04320987654320987,0,0,0.04320987654320987,5.487654320987653,0)" xlink:href="#ci"/><use transform="matrix(0.04320987654320987,0,0,0.04320987654320987,14.129629629629626,0)" xlink:href="#cb"/><use transform="matrix(0.04320987654320987,0,0,0.04320987654320987,22.7716049382716,0)" xlink:href="#bP"/></g></defs></g></svg>